# xmcd CD database file
#
# Track frame offsets:
#	150
#	9725
#	26987
#	44137
#	53537
#	65237
#	89287
#	107350
#	117612
#	152987
#	160217
#	175450
#	184050
#
# Disc length: 2799 seconds
#
# Revision: 0
# Processed by: cddbd v1.5.1PL0 Copyright (c) Steve Scherf et al.
# Submitted via: CDex 1.51
#
DISCID=b80aed0d
DTITLE=Micheau/Gedda/Blanc/Mars/Dervaux - Les Pecheurs De Perles (Micheau/Gedda)
DYEAR=1960
DGENRE=Classic
TTITLE0=Prelude
TTITLE1=Sur La Greve En Feu
TTITLE2=Amis, Interrompez Vos Danses
TTITLE3=Demeure Parmi Nous, Nadir
TTITLE4=C'est Toi, Toi Qu'enfin Je Revois
TTITLE5=Au Fond Du Temple Saint
TTITLE6=Que Vois-Je?
TTITLE7=Sois La Bienvenue
TTITLE8=Seule Au Milieu De Nous
TTITLE9=A Cette Voix Quel Trouble Agitait
TTITLE10=Je Crois Entendre Encore
TTITLE11=Le Ciel Est Bleu!
TTITLE12=O Dieu Brahma
EXTD=YEAR: 1960
EXTT0=
EXTT1=
EXTT2=
EXTT3=
EXTT4=
EXTT5=
EXTT6=
EXTT7=
EXTT8=
EXTT9=
EXTT10=
EXTT11=
EXTT12=
PLAYORDER=
